<mxfile host="65bd71144e">
    <diagram id="BjO8PmjP9vLV3g4-xzOb" name="Page-1">
        <mxGraphModel dx="587" dy="394" grid="1" gridSize="10" guides="1" tooltips="1" connect="1" arrows="1" fold="1" page="1" pageScale="1" pageWidth="850" pageHeight="1100" math="0" shadow="0">
            <root>
                <mxCell id="0"/>
                <mxCell id="1" parent="0"/>
                <mxCell id="51" value="users" style="swimlane;childLayout=stackLayout;horizontal=1;startSize=30;horizontalStack=0;rounded=1;fontSize=14;fontStyle=0;strokeWidth=2;resizeParent=0;resizeLast=1;shadow=0;dashed=0;align=center;" vertex="1" parent="1">
                    <mxGeometry x="40" y="40" width="160" height="180" as="geometry"/>
                </mxCell>
                <mxCell id="52" value="userId: integer,&#10;username: string,&#10;password: string,&#10;email: string,&#10;posts: [{&#10;        postId: integer (&quot;FK&quot; of&#10;        post by user)&#10;            }]&#10;" style="align=left;strokeColor=none;fillColor=none;spacingLeft=4;fontSize=12;verticalAlign=top;resizable=0;rotatable=0;part=1;" vertex="1" parent="51">
                    <mxGeometry y="30" width="160" height="150" as="geometry"/>
                </mxCell>
                <mxCell id="55" value="posts" style="swimlane;childLayout=stackLayout;horizontal=1;startSize=30;horizontalStack=0;rounded=1;fontSize=14;fontStyle=0;strokeWidth=2;resizeParent=0;resizeLast=1;shadow=0;dashed=0;align=center;" vertex="1" parent="1">
                    <mxGeometry x="320" y="40" width="210" height="250" as="geometry"/>
                </mxCell>
                <mxCell id="56" value="postId: integer,&#10;userId: integer (&quot;FK&quot; of user that&#10;        made the post),&#10;isReview: boolean,&#10;postTitle: string,&#10;postBody: string,&#10;taggedGame: integer,&#10;rating: integer,&#10;imageUrl: string,&#10;comments: [{&#10;        userId: integer (&quot;FK&quot; of&#10;        user who made the comment),&#10;        body: string&#10;            }]&#10;" style="align=left;strokeColor=none;fillColor=none;spacingLeft=4;fontSize=12;verticalAlign=top;resizable=0;rotatable=0;part=1;" vertex="1" parent="55">
                    <mxGeometry y="30" width="210" height="220" as="geometry"/>
                </mxCell>
                <mxCell id="57" value="" style="edgeStyle=entityRelationEdgeStyle;fontSize=12;html=1;endArrow=ERoneToMany;" edge="1" parent="1" source="52" target="56">
                    <mxGeometry width="100" height="100" relative="1" as="geometry">
                        <mxPoint x="220" y="240" as="sourcePoint"/>
                        <mxPoint x="320" y="140" as="targetPoint"/>
                    </mxGeometry>
                </mxCell>
            </root>
        </mxGraphModel>
    </diagram>
</mxfile>